<svg version="1.1" id="Calque_1" xmlns="http://www.w3.org/2000/svg" x="0" y="0" viewBox="0 0 16 16" xml:space="preserve"><style>.st0{fill:#fff}</style><path class="st0" d="M4.3 10.3l-3-2.5 3-2.5c.2-.2.2-.5.1-.7-.2-.1-.3-.2-.5-.2-.1 0-.2 0-.3.1L.2 7.4c-.1.1-.2.2-.2.4s.1.3.2.4l3.4 2.9c.1.1.2.1.3.1s.3-.1.4-.2c.2-.2.2-.5 0-.7zM16 8c0-.1-.1-.3-.2-.4l-3.5-2.9c-.1-.1-.2-.1-.3-.1s-.3.1-.4.2c-.2.2-.1.5.1.7l3 2.5-3 2.5c-.2.2-.2.5-.1.7.1.1.2.2.4.2.1 0 .2 0 .3-.1l3.4-2.9c.2-.1.3-.3.3-.4zM9.7 1.7h-.1c-.2 0-.4.1-.5.3L5.5 13.7c-.1.3.1.5.3.6h.1c.2 0 .4-.1.5-.4L10 2.2c.1-.2 0-.4-.3-.5z"/></svg>