<svg version="1.1" id="Layer_1" xmlns="http://www.w3.org/2000/svg" x="0" y="0" viewBox="0 0 512 512" xml:space="preserve"><style>.st4{fill:#a07765}.st5{fill:#f2a661}</style><path d="M423.8 440.1c0 41.7-23.5 71.9-55.9 71.9-38.3 0-62.4-19.4-69.6-55.2-26.6 9.7-58 9.7-84.5 0-7.2 35.8-31.3 55.2-69.6 55.2-32.4 0-55.9-30.3-55.9-71.9 0-24.9-42.8-54-22.3-95.1 14.6-29.2 30.3-114.6 30.3-152.7 0-33.5 18.8-51.8 34.1-59.6-.4-31.3 4.9-56.9 16-76.2C170.1 14.6 215.4-2.9 256 .4c5.4-.4 21.2-1.1 39.8 3.5 30.5 7.6 54.7 25.8 69.9 52.5 11.1 19.3 16.4 44.9 16 76.2 15.3 7.8 34.1 26.1 34.1 59.6 0 38.1 15.7 123.5 30.3 152.7 20.6 41.2-22.3 70.2-22.3 95.2z" fill="#734835"/><path d="M359.4 260.1c-7 27.9 8.7 76.6.2 119.2-6.3 31.6-1.8 59.2-21.3 69.9-7.8 4.3-16.7 3.7-25 .9-33.8 18.7-80.6 18.8-114.5 0-8.4 2.8-17.2 3.4-25-.9-19.5-10.7-15-38.2-21.3-69.9-4.5-22.5-2.3-46.2-.1-68.6 3.8-39.7 2.3-43.2-2.3-60.4-15.3-58-33.8-141.1-3.8-193.7 15.6-27.3 40-45.1 69.9-52.5C234.8-.6 250.6.1 256 .6c5.4-.4 21.2-1.1 39.8 3.5 30.5 7.6 54.7 25.8 69.9 52.5 14.2 24.9 19 60.1 14.2 104.6-4.2 40.1-14.7 75.8-20.5 98.9z" fill="#f2f2f2"/><path d="M296 276.2c0 10.3-12.9 52-40 52s-40-41.7-40-52c0-37.3 80-37.3 80 0z" fill="#999"/><path d="M321 445.3c-36.6 25-93.4 25.1-130 0-10-6.9-9-22 1.9-27.5 22.8-11.4 47.1-74 47.1-97.6 0-8.8 7.2-16 16-16s16 7.2 16 16c0 23.8 24.4 86.2 47.1 97.6 10.9 5.4 11.9 20.6 1.9 27.5z" fill="#ece2e2"/><path class="st4" d="M216 208.3c-25.3 21.1-63.9 103.9-63.9 151.9 0 4-.4 7.6-1.1 10.3-5-39.8 8.1-84.4 1.6-110.3-16-63.7-41.1-155.5-.3-213.1 27.6-8.8 71.1-16 87.8 17.4C248 80.4 264 168.3 216 208.3zM296 208.3c25.3 21.1 63.9 103.9 63.9 151.9 0 4 .4 7.6 1.1 10.3 5-39.8-8.1-84.4-1.6-110.3 16-63.7 41.1-155.5.3-213.1-27.6-8.8-71.1-16-87.8 17.4C264 80.4 248 168.3 296 208.3z"/><circle cx="204" cy="140.3" r="20"/><circle cx="308" cy="140.3" r="20"/><path d="M446.1 345c-14.6-29.2-30.3-114.6-30.3-152.7 0-33.5-18.8-51.8-34.1-59.6.4-31.3-4.9-56.9-16-76.2-15.3-26.8-39.5-44.9-69.9-52.5C277.2-.7 261.4 0 256 .5 250.6.1 234.8-.6 216.2 4c-30.5 7.6-54.7 25.8-69.9 52.5-11 19.3-16.4 44.9-16 76.2-15.3 7.8-34.1 26.1-34.1 59.6 0 38.1-15.7 123.5-30.3 152.7-20.6 41.1 22.3 70.1 22.3 95.1 0 41.7 23.5 71.9 55.9 71.9 38.3 0 62.4-19.4 69.6-55.2 26.6 9.7 58 9.7 84.5 0 7.2 35.8 31.3 55.2 69.6 55.2 32.4 0 55.9-30.3 55.9-71.9.1-25 43-54.1 22.4-95.1zM174 72.3c27-47.2 79.7-39.5 83.9-40 2.2-.3 54-5.7 80.1 40 25.9 45.3 2.9 132.5-6.9 169.7-6.1 23-7.1 30.1-3.2 71.6 5.3 55.2.7 45.8-3.8 88.9-.6 5.4-1.3 12.2-2.2 16.6-25.7-10.8-48-72.2-49.9-96.4 16.1-11.6 23.9-38.5 23.9-46.5 0-37.2-79.9-37.4-79.9 0 0 8 7.7 34.8 23.9 46.5-1.8 24.1-24.1 85.5-49.9 96.4-.9-4.4-1.6-11.2-2.2-16.6-4.5-42.9-9-33.6-3.8-88.9 3.8-39.8 3.1-47.8-3.2-71.6-9.7-37.2-32.7-124.4-6.8-169.7zm82 221.6c-2.4-3.3-4.9-8.6-6.5-13 4-.9 9-.9 13 0-1.6 4.4-4.1 9.7-6.5 13zM144.1 480c-15.7 0-24-20.1-24-40 0-36.4-36.1-59.9-25.7-80.8 17.3-34.7 33.7-123.5 33.7-167 0-8.2 1.7-15.1 5.2-20.6 4.3 31.3 11.9 60.4 16.7 78.5 4.4 16.8 6.1 19.9 2.3 60.4-5.7 59.7-.4 54.6 3.8 95.2 2 18.9 3.9 42.9 26.1 46.1-5.3 24.4-21.2 28.2-38.1 28.2zm85.1-51.7c11.2-13 20.1-29.9 26.8-45.9 6.7 16 15.6 32.8 26.8 45.9-16.9 5-36.6 5-53.6 0zm162.7 11.8c0 19.9-8.2 40-24 40-16.9 0-32.8-3.9-38.1-28.1 2.8-.4 5.7-1.3 8.5-2.8 19.5-10.7 15-38.2 21.3-69.9 8.5-42.6-7.2-91.2-.2-119.1 4.1-16.5 14.1-50.5 19.3-88.4 3.4 5.5 5.2 12.4 5.2 20.6 0 43.5 16.3 132.3 33.7 167 10.4 20.8-25.7 44.3-25.7 80.7z"/><path class="st5" d="M177.2 95.3s33.9-22.6 39.6-5.7c10.7 32.4-59.8 26-39.6 5.7zM334.8 95.3s-33.9-22.6-39.6-5.7c-10.7 32.4 59.8 26 39.6 5.7z"/></svg>