<?xml version="1.0" encoding="utf-8"?>
<!-- Generator: Adobe Illustrator 23.1.0, SVG Export Plug-In . SVG Version: 6.00 Build 0)  -->
<svg version="1.1" id="Calque_1" xmlns="http://www.w3.org/2000/svg" xmlns:xlink="http://www.w3.org/1999/xlink" x="0px" y="0px"
	 viewBox="0 0 16 16" style="enable-background:new 0 0 16 16;" xml:space="preserve">
<path d="M6.8,0h2.5C9.7,0,10,0.3,10,0.8V6h2.7c0.6,0,0.8,0.7,0.4,1.1l-4.8,4.8c-0.2,0.2-0.6,0.2-0.9,0L2.8,7.1C2.4,6.7,2.7,6,3.3,6
	H6V0.8C6,0.3,6.3,0,6.8,0z M16,11.8v3.5c0,0.4-0.3,0.8-0.8,0.8H0.8C0.3,16,0,15.7,0,15.3v-3.5C0,11.3,0.3,11,0.8,11h4.6l1.5,1.5
	c0.6,0.6,1.6,0.6,2.3,0l1.5-1.5h4.6C15.7,11,16,11.3,16,11.8z M12.1,14.5c0-0.3-0.3-0.6-0.6-0.6s-0.6,0.3-0.6,0.6s0.3,0.6,0.6,0.6
	S12.1,14.8,12.1,14.5z M14.1,14.5c0-0.3-0.3-0.6-0.6-0.6s-0.6,0.3-0.6,0.6s0.3,0.6,0.6,0.6S14.1,14.8,14.1,14.5z"/>
</svg>
