<?xml version="1.0" encoding="utf-8"?>
<!-- Generator: Adobe Illustrator 23.1.0, SVG Export Plug-In . SVG Version: 6.00 Build 0)  -->
<svg version="1.1" id="Calque_1" xmlns="http://www.w3.org/2000/svg" xmlns:xlink="http://www.w3.org/1999/xlink" x="0px" y="0px"
	 viewBox="0 0 16 16" style="enable-background:new 0 0 16 16;" xml:space="preserve">
<path fill-rule="evenodd" clip-rule="evenodd" d="M16,0.8v10.6c0,2-1.6,3.6-3.5,3.7l-0.2,0H3c-1.6,0-2.9-1.3-3-2.8l0-0.2V9h5V0.8H16z M14.9,1.9H6v10.3
	c0,0.7-0.3,1.4-0.7,2h6.9c1.4,0,2.6-1.1,2.7-2.5l0-0.2V1.9z M5,10.1H1.1v2.1c0,1,0.8,1.9,1.8,1.9l0.2,0c1,0,1.9-0.8,1.9-1.8l0-0.2
	C5,12.1,5,10.1,5,10.1z M13.3,10.4v1.1H8v-1.1H13.3z M13.3,7.2v1.1H8V7.2H13.3z M13.3,4v1.1H8V4H13.3z"/>
</svg>
