<?xml version="1.0" encoding="utf-8"?>
<!-- Generator: Adobe Illustrator 23.1.0, SVG Export Plug-In . SVG Version: 6.00 Build 0)  -->
<svg version="1.1" id="Calque_1" xmlns="http://www.w3.org/2000/svg" xmlns:xlink="http://www.w3.org/1999/xlink" x="0px" y="0px"
	 viewBox="0 0 16 16" style="enable-background:new 0 0 16 16;" xml:space="preserve">
<path d="M8,15.3L1.4,8.6C0.5,7.7,0,6.5,0,5.3c0-1.2,0.5-2.4,1.3-3.2c0.9-0.9,2-1.4,3.3-1.4S7,1.2,7.9,2.1c0,0,0.1,0.1,0.1,0.1
	c0,0,0.1-0.1,0.1-0.1c0.9-0.9,2-1.4,3.3-1.4s2.4,0.5,3.3,1.4C15.5,2.9,16,4,16,5.2c0,1.2-0.4,2.3-1.2,3.2L8,15.3z M4.6,2.5
	c-0.8,0-1.5,0.3-2,0.8c-0.5,0.5-0.8,1.2-0.8,2c0,0.8,0.3,1.5,0.9,2.1L8,12.8l5.5-5.5C14,6.7,14.2,6,14.2,5.3c0-0.7-0.3-1.4-0.8-2
	c-1.1-1.1-3-1.1-4,0C9.1,3.6,8.9,3.8,8.8,4.1L8,5.8L7.2,4.1C7.1,3.8,6.9,3.6,6.6,3.3C6.1,2.8,5.4,2.5,4.6,2.5z"/>
</svg>
