<?xml version="1.0" encoding="utf-8"?>
<!-- Generator: Adobe Illustrator 22.0.1, SVG Export Plug-In . SVG Version: 6.00 Build 0)  -->
<svg version="1.1" id="Calque_1" xmlns="http://www.w3.org/2000/svg" xmlns:xlink="http://www.w3.org/1999/xlink" x="0px" y="0px"
	 viewBox="0 0 16 16" style="enable-background:new 0 0 16 16;" xml:space="preserve">
<path d="M5.3,8c0-1.5,1.2-2.7,2.7-2.7s2.7,1.2,2.7,2.7S9.5,10.7,8,10.7S5.3,9.5,5.3,8 M3.9,8c0,2.3,1.8,4.1,4.1,4.1s4.1-1.8,4.1-4.1
	S10.3,3.9,8,3.9S3.9,5.7,3.9,8 M11.3,3.7c0,0.5,0.4,1,1,1c0.5,0,1-0.4,1-1s-0.4-1-1-1S11.3,3.2,11.3,3.7 M4.8,14.5
	c-0.8,0-1.2-0.2-1.5-0.3c-0.4-0.1-0.6-0.3-0.9-0.6c-0.3-0.3-0.5-0.5-0.6-0.9c-0.1-0.3-0.2-0.7-0.3-1.5c0-0.8,0-1.1,0-3.2
	s0-2.4,0-3.2c0-0.8,0.2-1.2,0.3-1.5c0.1-0.4,0.3-0.6,0.6-0.9c0.3-0.3,0.5-0.5,0.9-0.6C3.6,1.7,4,1.5,4.8,1.5c0.8,0,1.1,0,3.2,0
	c2.1,0,2.4,0,3.2,0c0.8,0,1.2,0.2,1.5,0.3c0.4,0.1,0.6,0.3,0.9,0.6c0.3,0.3,0.5,0.5,0.6,0.9c0.1,0.3,0.2,0.7,0.3,1.5
	c0,0.8,0,1.1,0,3.2c0,2.1,0,2.4,0,3.2c0,0.8-0.2,1.2-0.3,1.5c-0.1,0.4-0.3,0.6-0.6,0.9s-0.5,0.5-0.9,0.6c-0.3,0.1-0.7,0.2-1.5,0.3
	c-0.8,0-1.1,0-3.2,0C5.9,14.6,5.6,14.6,4.8,14.5 M4.7,0c-0.9,0-1.4,0.2-1.9,0.4c-0.5,0.2-1,0.5-1.4,0.9C0.9,1.8,0.6,2.2,0.4,2.8
	C0.2,3.3,0.1,3.9,0,4.7C0,5.6,0,5.8,0,8s0,2.4,0,3.3c0,0.9,0.2,1.4,0.4,1.9c0.2,0.5,0.5,1,0.9,1.4c0.4,0.4,0.9,0.7,1.4,0.9
	c0.5,0.2,1.1,0.3,1.9,0.4c0.9,0,1.1,0,3.3,0c2.2,0,2.4,0,3.3,0c0.9,0,1.4-0.2,1.9-0.4c0.5-0.2,1-0.5,1.4-0.9
	c0.4-0.4,0.7-0.9,0.9-1.4c0.2-0.5,0.3-1.1,0.4-1.9c0-0.9,0-1.1,0-3.3s0-2.4,0-3.3c0-0.9-0.2-1.4-0.4-1.9c-0.2-0.5-0.5-1-0.9-1.4
	c-0.4-0.4-0.9-0.7-1.4-0.9c-0.5-0.2-1.1-0.3-1.9-0.4C10.4,0,10.2,0,8,0C5.8,0,5.6,0,4.7,0"/>
</svg>
