<?xml version="1.0" encoding="utf-8"?>
<!-- Generator: Adobe Illustrator 23.1.0, SVG Export Plug-In . SVG Version: 6.00 Build 0)  -->
<svg version="1.1" id="Calque_1" xmlns="http://www.w3.org/2000/svg" xmlns:xlink="http://www.w3.org/1999/xlink" x="0px" y="0px"
	 viewBox="0 0 16 16" style="enable-background:new 0 0 16 16;" xml:space="preserve">
<path d="M7.2,0.1C4.6,0.3,1.9,2.5,1.8,5.5c0,1.9,0.4,3.3,2.2,3.7c0.8-1.3-0.2-1.6-0.4-2.6c-0.6-4,4.7-6.8,7.5-4
	c1.9,1.9,0.6,8-2.4,7.4c-3-0.6,1.4-5.4-0.9-6.3C5.8,2.9,4.8,6,5.7,7.5C5.2,10.2,4,12.7,4.5,16c1.5-1.1,2-3.2,2.4-5.4
	c0.7,0.4,1.2,0.9,2.1,1c3.6,0.3,5.6-3.6,5.1-7.2C13.7,1.3,10.6-0.3,7.2,0.1z"/>
</svg>
