<?xml version="1.0" encoding="utf-8"?>
<!-- Generator: Adobe Illustrator 23.1.0, SVG Export Plug-In . SVG Version: 6.00 Build 0)  -->
<svg version="1.1" id="Calque_1" xmlns="http://www.w3.org/2000/svg" xmlns:xlink="http://www.w3.org/1999/xlink" x="0px" y="0px"
	 viewBox="0 0 16 16" style="enable-background:new 0 0 16 16;" xml:space="preserve">
<g>
	<path fill-rule="evenodd" clip-rule="evenodd" d="M14.4,5.7c-1.5,0.8-3.3,0.2-4-1.3c-0.8-1.5-0.2-3.3,1.3-4c1.5-0.8,3.3-0.2,4,1.3C16.4,3.1,15.9,4.9,14.4,5.7z
		 M5.1,5.9c1.2,1.2,1.2,3.1,0,4.2c-1.2,1.2-3.1,1.2-4.2,0c-1.2-1.2-1.2-3.1,0-4.2C2.1,4.7,4,4.7,5.1,5.9z"/>
	<path d="M13,14c-0.2,0-0.3,0-0.4-0.1l-10-5C2.2,8.7,2,8.4,2,8s0.2-0.7,0.6-0.9l10-5c0.5-0.2,1.1,0,1.3,0.4c0.2,0.5,0,1.1-0.4,1.3
		L5.2,8l8.2,4.1c0.5,0.2,0.7,0.8,0.4,1.3C13.7,13.8,13.4,14,13,14z"/>
	<path fill-rule="evenodd" clip-rule="evenodd" d="M14.4,10.3c-1.5-0.8-3.3-0.2-4,1.3c-0.8,1.5-0.2,3.3,1.3,4c1.5,0.8,3.3,0.2,4-1.3
		C16.4,12.9,15.9,11.1,14.4,10.3L14.4,10.3z"/>
</g>
</svg>
