<?xml version="1.0" encoding="utf-8"?>
<!-- Generator: Adobe Illustrator 22.0.1, SVG Export Plug-In . SVG Version: 6.00 Build 0)  -->
<svg version="1.1" id="Calque_1" xmlns="http://www.w3.org/2000/svg" xmlns:xlink="http://www.w3.org/1999/xlink" x="0px" y="0px"
	 viewBox="0 0 16 16" style="enable-background:new 0 0 16 16;" xml:space="preserve">
<style type="text/css">
	.st0{fill:#FFFFFF;}
</style>
<path class="st0" d="M4.3,10.3l-3-2.5l3-2.5c0.2-0.2,0.2-0.5,0.1-0.7C4.2,4.5,4.1,4.4,3.9,4.4c-0.1,0-0.2,0-0.3,0.1L0.2,7.4
	C0.1,7.5,0,7.6,0,7.8C0,8,0.1,8.1,0.2,8.2l3.4,2.9c0.1,0.1,0.2,0.1,0.3,0.1s0.3-0.1,0.4-0.2C4.5,10.8,4.5,10.5,4.3,10.3z"/>
<path class="st0" d="M16,8c0-0.1-0.1-0.3-0.2-0.4l-3.5-2.9c-0.1-0.1-0.2-0.1-0.3-0.1s-0.3,0.1-0.4,0.2c-0.2,0.2-0.1,0.5,0.1,0.7
	l3,2.5l-3,2.5c-0.2,0.2-0.2,0.5-0.1,0.7c0.1,0.1,0.2,0.2,0.4,0.2c0.1,0,0.2,0,0.3-0.1l3.4-2.9C15.9,8.3,16,8.1,16,8z"/>
<path class="st0" d="M9.7,1.7H9.6C9.4,1.7,9.2,1.8,9.1,2L5.5,13.7c-0.1,0.3,0.1,0.5,0.3,0.6h0.1c0.2,0,0.4-0.1,0.5-0.4L10,2.2
	C10.1,2,10,1.8,9.7,1.7z"/>
</svg>
