<svg xmlns="http://www.w3.org/2000/svg" width="37" height="104" viewBox="0 0 37 104">
    <g fill="none" fill-rule="evenodd">
        <g fill="#333" fill-rule="nonzero">
            <g>
                <path d="M106.134 9.455c-4.635 4.813-9.959 8.86-15.784 11.998-.423.273-.591.823-.398 1.297.194.475.692.734 1.176.612l5.827-1.808C90.887 30.47 81.742 36.29 71.749 39.693c-10.291 3.505-26.539 7.707-35.06-1.524-.444-.484-.84-1.012-1.182-1.577 4.717-.366 9.972-1.74 12.803-5.786 2.315-3.31 2.568-8.398-.827-11.069-8.74-6.899-18.148 6.356-15.261 14.908-11.052-.355-21.298-6.07-27.657-15.424-.443-.643-1.445-.071-1.038.627C9.858 30.424 21.073 36.81 33.1 36.688c5.75 11.25 21.514 9.434 31.65 7.142 13.194-2.984 25.947-9.489 33.828-21.013l-.078 6.345c-.011.968 1.465 1.508 1.877.527 2.663-6.332 5.146-12.738 7.448-19.216.358-1.013-1.015-1.716-1.69-1.018zm-63.55 10.822c7.128-.038 6.21 8.427 1.88 11.48-2.785 1.971-6.598 2.63-9.91 2.828-2.216-6.122.631-14.269 8.03-14.308zm57.331-1.389c-.24-.196-.558-.258-.851-.167l-.827.258c2.15-1.532 4.21-3.196 6.168-4.983-1.225 3.328-2.5 6.635-3.821 9.923.016-1.357.032-2.715.05-4.073.021-.459-.284-.865-.719-.958z" transform="translate(-105 -776) translate(96 770) rotate(100.018 30.026 29.972)"/>
            </g>
        </g>
    </g>
</svg>
