<?xml version="1.0" encoding="utf-8"?>
<!-- Generator: Adobe Illustrator 24.3.0, SVG Export Plug-In . SVG Version: 6.00 Build 0)  -->
<svg version="1.1" id="Calque_1" xmlns="http://www.w3.org/2000/svg" xmlns:xlink="http://www.w3.org/1999/xlink" x="0px" y="0px"
	 viewBox="0 0 50 37" style="enable-background:new 0 0 50 37;" xml:space="preserve">
<style type="text/css">
	.st0{fill:#D3D2D6;}
</style>
<g>
	<g>
		<g>
			<g>
				<g>
					<path class="st0" d="M30.4,26.5h-9c-2.4,0-4.4-2-4.4-4.4V14c0-3.1,0.4-3.5,3.5-3.5h5.4c3.1,0,3.5,0.4,3.5,3.5v7.5h-1.6V14
						c0-0.8,0-1.6-0.1-1.8c-0.2-0.1-1-0.1-1.8-0.1h-5.4c-0.8,0-1.6,0-1.8,0.1c-0.1,0.2-0.1,1-0.1,1.8v8.1c0,1.5,1.3,2.8,2.8,2.8h9
						V26.5z"/>
					<path class="st0" d="M30.4,26.5c-1.4,0-2.6-1.2-2.6-2.6V13.2h2.8c1.3,0,2.4,1.1,2.4,2.4v8.3C33,25.3,31.8,26.5,30.4,26.5z
						 M29.4,14.8v9.1c0,0.6,0.4,1,1,1s1-0.4,1-1v-8.3c0-0.4-0.4-0.8-0.8-0.8C30.6,14.8,29.4,14.8,29.4,14.8z"/>
				</g>
			</g>
		</g>
	</g>
</g>
<g>
	<path class="st0" d="M19.5,19.1c0-0.1,0-0.2,0.1-0.2c0.1,0,0.1-0.1,0.2-0.1c0.1,0,0.2,0,0.2,0.1c0.1,0.1,0.1,0.1,0.1,0.2
		c0,0.1,0,0.2-0.1,0.2s-0.1,0.1-0.2,0.1c-0.1,0-0.2,0-0.2-0.1C19.5,19.3,19.5,19.2,19.5,19.1z"/>
	<path class="st0" d="M22.3,17.6c0,0.3-0.1,0.5-0.3,0.6s-0.4,0.2-0.7,0.2h-0.2v0.9h-0.5v-2.5h0.8c0.3,0,0.5,0.1,0.7,0.2
		C22.3,17.2,22.3,17.4,22.3,17.6z M21.1,18h0.2c0.2,0,0.3,0,0.4-0.1c0.1-0.1,0.1-0.2,0.1-0.3c0-0.1,0-0.2-0.1-0.3
		c-0.1-0.1-0.2-0.1-0.3-0.1h-0.2V18z"/>
	<path class="st0" d="M24.9,18.1c0,0.4-0.1,0.7-0.4,1c-0.2,0.2-0.6,0.3-1,0.3h-0.7v-2.5h0.8c0.4,0,0.7,0.1,1,0.3
		C24.8,17.4,24.9,17.7,24.9,18.1z M24.4,18.1c0-0.5-0.2-0.8-0.7-0.8h-0.3v1.7h0.2C24.1,18.9,24.4,18.6,24.4,18.1z"/>
	<path class="st0" d="M26,19.4h-0.5v-2.5h1.5v0.4H26v0.7h0.9v0.4H26V19.4z"/>
</g>
</svg>
