<?xml version="1.0" encoding="utf-8"?>
<!-- Generator: Adobe Illustrator 25.0.1, SVG Export Plug-In . SVG Version: 6.00 Build 0)  -->
<svg version="1.1" id="Layer_1" xmlns="http://www.w3.org/2000/svg" xmlns:xlink="http://www.w3.org/1999/xlink" x="0px" y="0px"
	 viewBox="0 0 512 512" style="enable-background:new 0 0 512 512;" xml:space="preserve">
<style type="text/css">
	.st0{fill:#734835;}
	.st1{fill:#F2F2F2;}
	.st2{fill:#999999;}
	.st3{fill:#ECE2E2;}
	.st4{fill:#A07765;}
	.st5{fill:#F2A661;}
</style>
<path class="st0" d="M423.8,440.1c0,41.7-23.5,71.9-55.9,71.9c-38.3,0-62.4-19.4-69.6-55.2c-26.6,9.7-58,9.7-84.5,0
	c-7.2,35.8-31.3,55.2-69.6,55.2c-32.4,0-55.9-30.3-55.9-71.9c0-24.9-42.8-54-22.3-95.1c14.6-29.2,30.3-114.6,30.3-152.7
	c0-33.5,18.8-51.8,34.1-59.6c-0.4-31.3,4.9-56.9,16-76.2C170.1,14.6,215.4-2.9,256,0.4c5.4-0.4,21.2-1.1,39.8,3.5
	c30.5,7.6,54.7,25.8,69.9,52.5c11.1,19.3,16.4,44.9,16,76.2c15.3,7.8,34.1,26.1,34.1,59.6c0,38.1,15.7,123.5,30.3,152.7
	C466.7,386.1,423.8,415.1,423.8,440.1L423.8,440.1z"/>
<path class="st1" d="M359.4,260.1c-7,27.9,8.7,76.6,0.2,119.2c-6.3,31.6-1.8,59.2-21.3,69.9c-7.8,4.3-16.7,3.7-25,0.9
	c-33.8,18.7-80.6,18.8-114.5,0c-8.4,2.8-17.2,3.4-25-0.9c-19.5-10.7-15-38.2-21.3-69.9c-4.5-22.5-2.3-46.2-0.1-68.6
	c3.8-39.7,2.3-43.2-2.3-60.4c-15.3-58-33.8-141.1-3.8-193.7c15.6-27.3,40-45.1,69.9-52.5c18.6-4.7,34.4-4,39.8-3.5
	c5.4-0.4,21.2-1.1,39.8,3.5c30.5,7.6,54.7,25.8,69.9,52.5c14.2,24.9,19,60.1,14.2,104.6C375.7,201.3,365.2,237,359.4,260.1
	L359.4,260.1z"/>
<path class="st2" d="M296,276.2c0,10.3-12.9,52-40,52c-27.1,0-40-41.7-40-52C216,238.9,296,238.9,296,276.2z"/>
<path class="st3" d="M321,445.3c-36.6,25-93.4,25.1-130,0c-10-6.9-9-22,1.9-27.5c22.8-11.4,47.1-74,47.1-97.6c0-8.8,7.2-16,16-16
	c8.8,0,16,7.2,16,16c0,23.8,24.4,86.2,47.1,97.6C330,423.2,331,438.4,321,445.3z"/>
<path class="st4" d="M216,208.3c-25.3,21.1-63.9,103.9-63.9,151.9c0,4-0.4,7.6-1.1,10.3c-5-39.8,8.1-84.4,1.6-110.3
	c-16-63.7-41.1-155.5-0.3-213.1c27.6-8.8,71.1-16,87.8,17.4C248,80.4,264,168.3,216,208.3L216,208.3z"/>
<path class="st4" d="M296,208.3c25.3,21.1,63.9,103.9,63.9,151.9c0,4,0.4,7.6,1.1,10.3c5-39.8-8.1-84.4-1.6-110.3
	c16-63.7,41.1-155.5,0.3-213.1c-27.6-8.8-71.1-16-87.8,17.4C264,80.4,248,168.3,296,208.3L296,208.3z"/>
<circle cx="204" cy="140.3" r="20"/>
<circle cx="308" cy="140.3" r="20"/>
<path d="M446.1,345c-14.6-29.2-30.3-114.6-30.3-152.7c0-33.5-18.8-51.8-34.1-59.6c0.4-31.3-4.9-56.9-16-76.2
	c-15.3-26.8-39.5-44.9-69.9-52.5c-18.6-4.7-34.4-4-39.8-3.5c-5.4-0.4-21.2-1.1-39.8,3.5c-30.5,7.6-54.7,25.8-69.9,52.5
	c-11,19.3-16.4,44.9-16,76.2c-15.3,7.8-34.1,26.1-34.1,59.6c0,38.1-15.7,123.5-30.3,152.7c-20.6,41.1,22.3,70.1,22.3,95.1
	c0,41.7,23.5,71.9,55.9,71.9c38.3,0,62.4-19.4,69.6-55.2c26.6,9.7,58,9.7,84.5,0c7.2,35.8,31.3,55.2,69.6,55.2
	c32.4,0,55.9-30.3,55.9-71.9C423.8,415.1,466.7,386,446.1,345L446.1,345z M174,72.3c27-47.2,79.7-39.5,83.9-40
	c2.2-0.3,54-5.7,80.1,40c25.9,45.3,2.9,132.5-6.9,169.7c-6.1,23-7.1,30.1-3.2,71.6c5.3,55.2,0.7,45.8-3.8,88.9
	c-0.6,5.4-1.3,12.2-2.2,16.6c-25.7-10.8-48-72.2-49.9-96.4c16.1-11.6,23.9-38.5,23.9-46.5c0-37.2-79.9-37.4-79.9,0
	c0,8,7.7,34.8,23.9,46.5c-1.8,24.1-24.1,85.5-49.9,96.4c-0.9-4.4-1.6-11.2-2.2-16.6c-4.5-42.9-9-33.6-3.8-88.9
	c3.8-39.8,3.1-47.8-3.2-71.6C171.1,204.8,148.1,117.6,174,72.3L174,72.3z M256,293.9c-2.4-3.3-4.9-8.6-6.5-13c4-0.9,9-0.9,13,0
	C260.9,285.3,258.4,290.6,256,293.9z M144.1,480c-15.7,0-24-20.1-24-40c0-36.4-36.1-59.9-25.7-80.8c17.3-34.7,33.7-123.5,33.7-167
	c0-8.2,1.7-15.1,5.2-20.6c4.3,31.3,11.9,60.4,16.7,78.5c4.4,16.8,6.1,19.9,2.3,60.4c-5.7,59.7-0.4,54.6,3.8,95.2
	c2,18.9,3.9,42.9,26.1,46.1C176.9,476.2,161,480,144.1,480z M229.2,428.3c11.2-13,20.1-29.9,26.8-45.9c6.7,16,15.6,32.8,26.8,45.9
	C265.9,433.3,246.2,433.3,229.2,428.3z M391.9,440.1c0,19.9-8.2,40-24,40c-16.9,0-32.8-3.9-38.1-28.1c2.8-0.4,5.7-1.3,8.5-2.8
	c19.5-10.7,15-38.2,21.3-69.9c8.5-42.6-7.2-91.2-0.2-119.1c4.1-16.5,14.1-50.5,19.3-88.4c3.4,5.5,5.2,12.4,5.2,20.6
	c0,43.5,16.3,132.3,33.7,167C428,380.2,391.9,403.7,391.9,440.1L391.9,440.1z"/>
<g>
	<path class="st5" d="M177.2,95.3c0,0,33.9-22.6,39.6-5.7C227.5,122,157,115.6,177.2,95.3z"/>
	<path class="st5" d="M334.8,95.3c0,0-33.9-22.6-39.6-5.7C284.5,122,355,115.6,334.8,95.3z"/>
</g>
</svg>
