<svg version="1.1" id="Calque_1" xmlns="http://www.w3.org/2000/svg" x="0" y="0" viewBox="0 0 1715 366" xml:space="preserve"><style>.st0,.st1{fill:#333}.st1{stroke:#333;stroke-width:.4655;stroke-miterlimit:10}.st2{fill:#67bfac}</style><switch><g><path class="st0" d="M108.5 336.1c-10.1-6.3-17.8-15-23-26-5.2-11-7.8-23.3-7.8-36.8 0-19.4 4.2-38.1 12.7-56.2 8.4-18.1 20.5-32.9 36.3-44.4s34-17.2 54.7-17.2c12.2 0 22.8 2.5 31.9 7.6 9.1 5.1 16.2 11.7 21.3 19.9 5.1 8.2 7.9 17 8.6 26.5l-46.9 13.8c-1.8-6.8-5-12.3-9.6-16.7s-10-6.6-16-6.6c-7.9 0-15 3.2-21.4 9.5-6.4 6.3-11.4 14.3-15 24-3.6 9.7-5.4 19.4-5.4 29 0 10.4 2.3 18.9 6.9 25.5 4.6 6.6 11.3 10 20.1 10 6.1 0 12.1-1.9 18.1-5.6 6-3.7 11.1-8.9 15.4-15.7l40.2 18.6c-8.8 16.2-20.7 28.6-35.8 37.3-15.1 8.7-31.3 13-48.6 13-14.4 0-26.6-3.2-36.7-9.5zM270.4 329.4c-11.1-10.8-16.7-26.8-16.7-47.9 0-22.1 4.2-42.7 12.7-61.9 8.4-19.2 20.5-34.7 36.1-46.4 15.6-11.7 33.7-17.6 54.2-17.6 19.3 0 34.6 5.4 45.7 16.2s16.7 26.7 16.7 47.6c0 22.1-4.2 42.8-12.7 62.1-8.4 19.4-20.5 34.9-36.1 46.6-15.6 11.7-33.7 17.6-54.2 17.6-19.3-.1-34.6-5.5-45.7-16.3zm76.9-40.5c6.2-8.1 10.9-18.1 14.2-30 3.3-11.9 4.9-23.2 4.9-33.8 0-16.7-6.4-25-19.2-25-8.3 0-15.6 4.1-21.8 12.2-6.2 8.1-10.9 18.1-14.2 30-3.3 11.9-4.9 23.2-4.9 33.8 0 16.7 6.4 25 19.2 25 8.4-.1 15.6-4.1 21.8-12.2zM449.1 329.6c-8.8-10.7-13.2-25.9-13.2-45.7 0-23.6 3.5-45.2 10.6-64.8 7.1-19.6 17.2-35 30.4-46.4s28.4-17 45.7-17c9.4 0 17.7 2.5 24.8 7.6 7.1 5.1 11.5 10.4 13.3 16l4-19.2H616l-26.3 124.6c-3.8 17.1-5.7 31.7-5.7 43.9 0 3.2.2 7.4.7 12.8h-54.3c-.5-4.9-.7-8-.7-9.1 0-3.1.4-7.1 1.4-11.8-4.3 7-10.5 12.9-18.7 17.9-8.2 4.9-17.4 7.4-27.5 7.4-15.1-.2-27-5.5-35.8-16.2zm80.5-40.7c6.2-8.1 10.9-18.1 14.2-30 3.3-11.9 4.9-23.2 4.9-33.8 0-16.7-6.3-25-18.9-25-8.3 0-15.6 4.1-21.8 12.2-6.2 8.1-11 18.1-14.3 30-3.4 11.9-5.1 23.1-5.1 33.4 0 16.9 6.4 25.3 19.2 25.3 8.4 0 15.6-4 21.8-12.1zM656.7 336.1c-10.1-6.3-17.8-15-23-26-5.2-11-7.8-23.3-7.8-36.8 0-19.4 4.2-38.1 12.7-56.2 8.4-18.1 20.5-32.9 36.3-44.4 15.8-11.5 34-17.2 54.7-17.2 12.2 0 22.8 2.5 31.9 7.6 9.1 5.1 16.2 11.7 21.3 19.9 5.1 8.2 7.9 17 8.6 26.5l-46.9 13.8c-1.8-6.8-5-12.3-9.6-16.7s-10-6.6-16-6.6c-7.9 0-15 3.2-21.4 9.5-6.4 6.3-11.4 14.3-15 24-3.6 9.7-5.4 19.4-5.4 29 0 10.4 2.3 18.9 6.9 25.5 4.6 6.6 11.3 10 20.1 10 6.1 0 12.1-1.9 18.1-5.6 6-3.7 11.1-8.9 15.4-15.7l40.2 18.6c-8.8 16.2-20.7 28.6-35.8 37.3-15.1 8.7-31.3 13-48.6 13-14.4 0-26.6-3.2-36.7-9.5zM850.1 88h51.3l-18.6 87.8c6.5-6.1 13.9-11 22.1-14.7 8.2-3.7 16.7-5.6 25.5-5.6 15.1 0 27 4.4 35.8 13.3s13.2 21 13.2 36.3c0 5.4-.7 11.4-2 17.9l-25.3 118.1h-51l22.3-106c.7-3.4 1-6.4 1-9.1 0-6.8-1.9-12-5.7-15.9-3.8-3.8-8.9-5.7-15.2-5.7-7.4 0-14.3 2.9-20.8 8.6-6.4 5.7-10.6 13.5-12.7 23.1l-22.3 105h-51.3L850.1 88z"/><path class="st1" d="M18.1 46.4h7.7L23 59c2.5-3.9 5.9-7.3 10.2-10.2 4.3-2.9 9-4.4 14.1-4.4 4.9 0 9 1.2 12.2 3.7 3.2 2.5 5.3 6.3 6.2 11.5 3-4.6 6.8-8.3 11.3-11.1 4.5-2.8 9.4-4.1 14.5-4.1 6 0 10.8 1.7 14.5 5.2 3.7 3.5 5.5 8.6 5.5 15.4 0 2.7-.4 5.9-1.2 9.6L100 124.3h-7.8l10.3-48.5c.6-2.9.9-5.5.9-7.8 0-5.2-1.3-9.2-3.9-12-2.6-2.8-6.1-4.1-10.3-4.1-5.3 0-10.3 2.2-14.9 6.6-4.6 4.4-7.8 10.6-9.5 18.7l-10 47.2H47L57.1 76c.6-2.9.9-5.5.9-7.8 0-5.3-1.3-9.4-3.9-12.1S48 52 43.6 52c-5.2 0-10.1 2.2-14.7 6.6-4.6 4.4-7.8 10.7-9.5 18.8l-10 47H1.5l16.6-78zM132.3 119.3c-4.2-4.6-6.3-11.2-6.3-19.8 0-9.3 1.7-18.1 5.2-26.6 3.4-8.4 8.3-15.3 14.7-20.5 6.4-5.3 13.7-7.9 21.9-7.9 7.7 0 13.7 2.3 18 6.9 4.3 4.6 6.4 11.2 6.4 19.7 0 9.3-1.7 18.2-5.2 26.6-3.4 8.5-8.3 15.3-14.7 20.6-6.4 5.3-13.7 7.9-21.9 7.9-7.9 0-13.9-2.3-18.1-6.9zm36.6-7.2c4.9-4.6 8.6-10.6 11.3-17.8 2.6-7.2 3.9-14.5 3.9-22 0-6.7-1.5-11.8-4.6-15.4-3-3.6-7.5-5.4-13.3-5.4-6.5 0-12.1 2.3-17 7-4.8 4.6-8.6 10.6-11.2 17.8-2.6 7.2-3.9 14.5-3.9 22 0 6.7 1.5 11.8 4.6 15.4 3 3.6 7.4 5.4 13.1 5.4 6.5 0 12.2-2.3 17.1-7zM218.2 46.4h7.7L223.1 59c2.5-3.9 6-7.3 10.4-10.2 4.4-2.9 9.2-4.4 14.4-4.4 6.2 0 11.1 1.8 14.7 5.4 3.6 3.6 5.4 8.8 5.4 15.5 0 3-.3 6.1-1 9.4l-10.6 49.5h-7.7L259 76c.6-2.8.9-5.4.9-7.7 0-5.3-1.4-9.4-4.1-12.2-2.8-2.8-6.4-4.2-11-4.2-3.4 0-6.8 1-10.3 2.9-3.5 1.9-6.6 4.8-9.3 8.6-2.7 3.8-4.6 8.4-5.7 13.9l-10 47h-7.8l16.5-77.9z"/><path class="st2" d="M1267.8 39.3c-2.1 2.6-7.3 9.4-7.3 12-.5 19.3-12.5 35.4-25 70.8-1.6 2.1.5 7.8-1 11.5l-6.8 25c-1.6 5.7-4.7 13.5-6.2 18.2-2.6 10.9-5.2 21.3-8.3 32.3-2.6 10.4-5.2 28.1-7.8 52.6 1.6 2.6 3.6 5.7 2.1 7.8 0 12-5.2 33.3-5.2 37l1 8.8c4.7 2.1 14.6 4.2 18.7 3.6 20.8-2.6 66.6-27.6 71.3-32.3-1.6 5.7-2.1 12.5-2.6 17.2-1.6 5.7-9.4 13-13.5 16.7-2.1 1.6-3.1 4.7-4.7 9.4-6.2 2.6-15.6 5.7-17.2 10.4-8.8 3.6-26 8.3-28.6 8.3l-13 1.6c-3.6.5.5-1.6-3.1-1-4.7 0-19.8-8.3-27.1-12.5-2.6-4.2-9.4-12-15.1-20.8-2.6-4.7-5.2-13-7.8-25-2.1-12-3.6-19.8-4.2-24.5-4.7 6.2-10.4 15.6-15.1 26.6-6.3 10.9-14.6 25-23.4 34.9-3.6 3.6-9.9 9.9-11.5 14.1 1.6 2.1 3.1 2.6 4.7 1-17.7 12.5-16.7 21.9-28.6 22.9-2.6 0-11.5-1.6-17.2-1.6-18.2-16.1-24.5-25.5-26-40.6-4.2-39.6 30.7-108.8 48.4-140 4.2-6.8 9.9-14.6 16.7-21.3 1.6-2.1 7.3-5.2 9.9-6.8 2.1-1.6 7.3-2.1 11.5-2.1 2.6-.5 1.6 4.2 5.7 4.2 3.6-.5 2.1-1.6 2.1-3.6 4.7 4.2 14.1 4.7 19.8 8.3 2.6 2.6 6.2 8.3 12 12.5 1.6-2.1 1-1 2.6-2.6 20.3-63 34.4-107.8 65.1-166.1 8.3 0 36.4 2.6 38 20.3-.2 2.4-1.8 9.2-3.3 12.8zm-130.7 158.8c-2.6 2.6-7.8 7.3-9.9 6.8.5 2.1 1 3.6-1 5.7-4.2 6.8-12.5 16.7-16.1 24.5-6.2 10.9-9.9 22.9-13.5 33.3 0 1.6 1.6 2.1 1.6 4.2-2.1 4.7-4.2 11.5-4.7 15.1 4.7-8.3 13.5-19.8 18.2-21.9.5-3.6 2.1-10.9 4.7-10.9 2.1-.5 4.2 2.1 3.6 0v-3.1c6.2-2.6 4.7-6.3 7.3-14.1 2.1 2.1-2.1 3.6 2.1 3.1 2.6 0 4.2-6.2 2.6-8.9 2.1-2.1 7.3-3.6 8.8-10.4-2.1-2.6-.5-6.8-.5-9.4-.6-3.6-.6-9.3-3.2-14zM1573.4 265.8c-3.6 0-1.6-2.1-3.1 0 0 2.1-2.1 2.6.5 2.6 3.6 0 1.6-.5 3.6-.5-2.1 2.1-4.7 7.8-3.1 9.9-6.2 5.7-14.6 10.9-20.3 16.7 0 1.6 1 2.1 2.6 2.1v5.2c-12.5 6.8-26 16.1-44.8 27.1-2.1 2.1-3.6 6.8-6.2 8.8-5.7 3.1-32.8 12.5-44.2 12.5-27.1 0-50.5-28.6-52.1-51.5 0-4.2-.5-9.4-.5-13 0-7.8 1-18.2 3.6-31.2 2.6-13.5 6.2-25 11.5-33.8 1.6-.5 1-4.2 1.6-6.8 4.7-10.4 9.9-20.3 16.7-28.6 4.7-4.7 9.4-8.3 12-14.1 0-.5 0-1-.5-1.6-1.6 1.6-2.1 2.1-2.1 2.6 6.2-7.8 13.5-22.4 21.9-31.2 2.1-3.6 7.8-3.1 12-5.2 3.6-2.1 4.7-5.7 8.8-5.7 2.6 0 16.1 2.6 21.9 5.2 5.7 3.6 16.7 12 20.3 20.3 2.6 5.7 5.2 15.6 5.2 19.8 0 5.2-5.7 35.9-11.5 39-1.6 1-4.2 1.6-7.8 1.6-8.3 0-12.5-6.2-14.6-14.1-2.1-5.7-6.8-10.4-4.7-16.1v-.5h-1.6c-19.3 24.5-34.4 51.5-43.2 70.8-5.2 12-14.1 42.2-14.1 44.8v7.3c4.7 2.1 12.5 3.6 15.1 3.6s14.6-5.7 22.9-9.4c18.7-7.8 42.7-15.6 67.2-28.1 6.2-3.6 22.9-13 35.4-18.7-2.7 2.4-4.3 10.2-8.4 10.2z"/><path class="st2" d="M1645.2 336.1c-2.1 1.6-2.6 5.7-4.2 7.8-12 7.3-22.4 10.9-32.3 10.9-16.1 0-24.5-9.9-34.9-18.2-3.6-2.6-5.7-15.6-12-15.6-1.6-6.2-4.2-18.2-4.2-20.8 0-22.9 20.3-66.1 25-73.4 1.6-1.6.5-6.2 2.6-8.3 3.6-6.3 9.4-12.5 12-18.7 2.1-1.6 2.1-1 4.2-1.6 2.1-.5 1-3.6 3.1-6.2 2.6-4.7 9.4-7.3 13-12 2.1-2.6 1-6.8 3.1-10.4-1.6 0-4.7-2.6-6.8 1 0-1.6-.5-2.6-1-3.1-1 .5-1.6 2.1-1.6 4.2 0-2.6-1-3.6-3.6-3.6l1-.5c.5 0 1-.5 2.1-1.6-2.6-19.8 32.8-26.6 38.5-32.3 2.6 5.7 6.8 2.1 12.5 4.7 2.6 2.1 11.5 10.9 16.1 15.6 0 .5.5 1 1 2.1.5 1.6 1.6 3.1 2.1 3.6 1.6.5 3.6 0 5.2 1.6 16.1 22.4 27.1 42.7 27.1 65.1.2 37.8-30 76.3-68 109.7zm18.7-145.8c-5.7 10.9-17.7 24.5-22.4 32.3-11.5 20.8-32.8 63-32.8 67.2v4.7c6.8-4.7 18.2-15.6 20.8-15.6 3.6 0-2.6 3.1 1.6 3.1 4.7 0 26-33.8 27.1-36.4 3.1-4.7 12-34.9 12-35.9 0-4.3-3.7-13.7-6.3-19.4zM1353.7 125.7c-.5.5-1 .5-1 1 0 .7.3 1.2.9 1.4.2-.7.3-1.5.1-2.4zM1404.2 301.2c-10.4 2.6-23.4 7.3-37.5 11.5-8.3-3.6-12.5 1.6-18.2 1.6-3.6 0-11.5.5-15.1-1.6-6.2-2.6-15.6-8.8-15.6-13 0-4.7 29.7-34.4 44.8-52.6 8.9-10.9 19.8-26.6 23.9-34.9 4.2-13 9.9-39 9.9-42.2 0-13.5-10.4-2.1-10.4-23.9-2.1-2.1-3.6-4.7-6.2-4.7-3.6 0 .5 1.6-3.6 1.6-3.6 0-2.1-5.2-3.6-9.9-4.7-1.6-12-6.2-14.6-6.2-4.2 0 1 1.6-3.1 1.6-.5 0-.9-.1-1.2-.2-1.5 4.2-10 6.7-13.9 8.5-10.4 6.2-11.5 11.5-19.3 18.2-3.6 6.8-9.9 14.6-13.5 19.3-7.8 12.5-13 24.5-17.2 32.8-7.8 16.1-15.6 36.4-17.7 46.3-2.1 8.3-6.8 19.3-4.2 40.1 9.9 41.6 5.2 28.6 14.6 37 13 14.1 17.2 17.7 32.3 21.3l5.7 7.8c1.6-10.4 16.7 0 22.9 0 1.6 0 2.1-.5 2.1-1V357c5.7-.5 13.5-5.2 19.3-5.7-2.1 0-4.7-.5-2.1-2.1 7.8 0 14.1-1 20.3-3.1 0-8.3 4.7-19.8 13.5-17.7 2.1-4.7 3.6-9.9 5.7-12.5-3.6-1-5.7-2.6-5.7-5.2 4.7-1.6 7.3-5.2 13-7.3-1.7-.1-3.8-.7-5.3-2.2zm-91.4-50.4c12.9-25.3 29.7-54.5 47.5-76.1 0 1.6-2.2 3.8 0 5.9l3.2-3.2c-15.6 25.9-30.2 56.1-47.5 77.1l-3.2-3.7zM1463.5 15.9c0-4.2-1.6-7.3-3.6-9.9-9.9 2.6-25 12.5-28.6 12.5-3.6 0-2.6 0-.5-2.1-.5.5-1.6.5-2.1.5h-1.6l2.1 3.1-5.7-1.6c-13 8.8-44.8 26-69.8 48.4-2.1 2.1-1 4.7-3.1 6.2-1.6-1.6-.5-2.1-.5-4.2l-1.6 3.1c4.2 8.3-4.7 9.4-4.7 19.3 0 2.6 2.6 6.8 2.6 9.4 4.7 2.1 18.2 6.8 22.9 6.8 3.6 0 11.5-6.8 18.2-13.5 6.8-6.8 8.8-8.8 11.5-10.4 10.4-8.3 12-11.5 19.8-17.2 14.6-10.4 30.2-22.4 38.5-30.2 3.1-3.6 3.6-6.8 1.6-9.9 3.1-3.5 4.6-6.7 4.6-10.3z"/></g></switch></svg>