<?xml version="1.0" encoding="utf-8"?>
<!-- Generator: Adobe Illustrator 25.0.0, SVG Export Plug-In . SVG Version: 6.00 Build 0)  -->
<svg version="1.1" id="Calque_1" xmlns="http://www.w3.org/2000/svg" xmlns:xlink="http://www.w3.org/1999/xlink" x="0px" y="0px"
	 viewBox="0 0 300 59" style="enable-background:new 0 0 300 59;" xml:space="preserve">
<style type="text/css">
	.st0{fill:#1D2E36;}
</style>
<g id="Calque_2_1_">
	<g id="Calque_1-2">
		<g id="Calque_2-2">
			<g id="Calque_2-3">
				<g id="Calque_1-2-3">
					<path class="st0" d="M109.8,18.7c-5-1.2-10.4-0.5-14.9,2.1V6.4h-10v52.1h10v-2.9c7.1,4.1,16,3.5,22.4-1.5
						c3.6-2.8,6.2-6.7,7.2-11.1C127.2,32.2,120.6,21.4,109.8,18.7z M114.6,40.6c-1.3,5.3-6.6,8.6-11.9,7.3
						c-5.3-1.3-8.6-6.6-7.3-11.9c1.1-4.4,5-7.5,9.6-7.6c0.8,0,1.6,0.1,2.4,0.3C112.7,30,115.9,35.3,114.6,40.6
						C114.6,40.6,114.6,40.6,114.6,40.6z M35.1,25.6c-5.9-7.7-16.6-9.9-25.1-5.1V6.6H0v51.8h10V38l0,0v-0.4c0-5.3,4.3-9.6,9.6-9.6
						c5.3,0,9.6,4.3,9.6,9.6l0,0V38h0.1v20.7h10.1V37.3h-0.1C39.2,33.1,37.7,29,35.1,25.6z M71.5,39.9c0,0.4-0.1,0.9-0.2,1.3
						c-1.3,5.1-6.4,8.3-11.6,7c-4.3-1-7.3-4.8-7.3-9.2v-0.4h0V18h-10v21.2h0.1c0.2,10.8,9,19.4,19.8,19.3
						c8.9-0.1,16.6-6.3,18.7-14.9c0.3-1.2,0.5-2.4,0.5-3.6h0.1V18h-10L71.5,39.9L71.5,39.9z M156.2,41.2c-0.3-0.6-0.7-1.2-1.1-1.8
						c-0.4-0.5-0.9-1-1.4-1.5c-1-0.9-2.2-1.7-3.4-2.3c-1.2-0.6-2.5-1.2-3.8-1.6l-1.5-0.5c-1.5-0.5-3-1.1-4.4-1.8
						c-1.3-0.8-1.8-1.6-1.8-2.6c0-0.9,0.4-1.8,1.1-2.3c0.7-0.5,1.9-0.8,3.3-0.8c1.4,0,2.8,0.3,4.1,0.9c1.5,0.6,2.9,1.5,4.2,2.5l0,0
						l5.2-7l0,0c-0.9-0.7-1.8-1.3-2.8-1.8c-1-0.6-2.1-1.1-3.2-1.6c-2.5-1-5.2-1.6-7.9-1.6c-2.1,0-4.2,0.3-6.2,0.9
						c-1.7,0.5-3.3,1.4-4.7,2.5c-1.3,1-2.3,2.4-3,3.9c-0.7,1.6-1.1,3.3-1,5c0,1.5,0.3,2.9,0.9,4.3c0.6,1.2,1.5,2.3,2.5,3.2
						c1.7,1.6,4,2.9,7,4l1.4,0.5c1.6,0.6,3.2,1.3,4.6,2.1c0.6,0.3,1.1,0.7,1.5,1.3c0.3,0.4,0.5,1,0.5,1.6c0,1-0.4,1.9-1.2,2.5
						c-0.8,0.6-2.1,0.9-3.8,0.9c-3.2,0-6.4-1.3-10.1-4.1l0,0l-5.2,7.3l0,0c1,0.8,2.1,1.6,3.3,2.2c1.2,0.7,2.5,1.3,3.8,1.7
						c4.8,1.8,10,2,14.9,0.5c1.8-0.6,3.6-1.5,5.1-2.7c1.3-1.1,2.4-2.5,3.1-4c0.7-1.6,1-3.3,1-5c0-0.8-0.1-1.7-0.3-2.5
						C156.8,42.6,156.6,41.9,156.2,41.2L156.2,41.2z M206.2,17.3c-6.2,0-11.8,2.1-16.8,5.2l4.2,7.7c3.8-2.2,7-3.6,10.4-3.6
						c4.3,0,6,2.2,6.2,5.7c-15.5,1.6-22.1,6.1-22.1,14.4c0,6.6,4.5,11.9,11.7,11.9c4.4,0,8.1-2,11.4-5h0.3v5h10.3V35.1
						C221.8,23,216.3,17.3,206.2,17.3z M210.2,46.2c-2,2-3.8,3.3-6.4,3.3c-2.8,0-4.5-1.2-4.5-3.7c0-3,2.7-5.4,10.9-6.5V46.2z
						 M299.8,43.3c-0.1-0.7-0.4-1.5-0.7-2.1c-0.3-0.6-0.7-1.2-1.1-1.8c-0.4-0.5-0.9-1-1.4-1.5c-1-0.9-2.2-1.7-3.4-2.3
						c-1.2-0.6-2.5-1.2-3.8-1.6l-1.5-0.5c-1.5-0.5-3-1.1-4.4-1.8c-1.3-0.8-1.8-1.6-1.8-2.6c0-0.9,0.4-1.8,1.1-2.3
						c0.7-0.5,1.9-0.8,3.3-0.8c1.4,0,2.8,0.3,4.1,0.9c1.5,0.6,2.9,1.5,4.2,2.5l0,0l5.2-7l0,0c-0.9-0.7-1.8-1.3-2.8-1.8
						c-1-0.6-2.1-1.2-3.2-1.6c-2.5-1-5.2-1.6-7.9-1.6c-2.1,0-4.2,0.3-6.2,0.9c-1.7,0.5-3.3,1.4-4.8,2.5c-1.3,1-2.3,2.4-3,3.9
						c-0.7,1.6-1.1,3.3-1,5c0,1.5,0.3,2.9,0.9,4.3c0.6,1.2,1.4,2.3,2.5,3.2c1.7,1.6,4,2.9,7,4l1.4,0.5c1.6,0.6,3.2,1.3,4.6,2.1
						c0.6,0.3,1.1,0.7,1.5,1.3c0.3,0.4,0.5,1,0.5,1.6c0,1-0.4,1.9-1.2,2.5c-0.8,0.6-2.1,0.9-3.8,0.9c-3.2,0-6.4-1.3-10.1-4.1l0,0
						l-5.2,7.3l0,0c1,0.8,2.1,1.6,3.3,2.2c1.2,0.7,2.5,1.3,3.8,1.7c4.8,1.8,10,2,14.9,0.5c1.8-0.6,3.6-1.5,5.1-2.7
						c1.3-1.1,2.4-2.5,3.1-4c0.7-1.6,1-3.3,1-5C300,45,300,44.1,299.8,43.3L299.8,43.3z M232.2,0.4c-3.7,0-6.7,3-6.7,6.7
						c0,3.7,3,6.7,6.7,6.7c3.7,0,6.7-3,6.7-6.7l0,0C238.8,3.3,235.9,0.4,232.2,0.4z M226.3,58.6H238V18.3h-11.6V58.6z M264.8,17.3
						c-4,0-8.3,2.5-11.2,7.8h-0.3v-6.9H243v40.3h11.6V34.8c2-5.3,5.7-7.2,8.6-7.2c1.4,0,2.9,0.2,4.3,0.6l1.9-10.1
						C268,17.5,266.4,17.3,264.8,17.3z M181.3,49.4c-3.1,0-5.1-1.8-5.1-6.3V27.4h9.4v-9.1h-9.4l0.2-11.6h-11.2v11.6l-6,0.5v8.6h5.4
						v15.9c0,9.1,3.8,15.2,13.6,15.2c3,0,5.9-0.5,8.7-1.4l-1.8-8.5C183.8,49.1,182.6,49.4,181.3,49.4L181.3,49.4z"/>
				</g>
			</g>
		</g>
	</g>
</g>
</svg>
